# xmcd CD database file
#
# Track frame offsets:
#	150
#	13812
#	27150
#	38327
#	56602
#	73427
#	86920
#	101875
#	119212
#	140962
#	158742
#	183072
#	210840
#	232075
#
# Disc length: 3343 seconds
#
# Revision: 0
# Processed by: cddbd v1.5.2PL0 Copyright (c) Steve Scherf et al.
# Submitted via: CDex 1.70beta1
#
DISCID=ca0d0d0e
DTITLE=Various Artist - The West Coast Jazz Collection
DYEAR=1900
DGENRE=Jazz
TTITLE0=Popo - Shorty Rogers and His Giants
TTITLE1=Swinghouse - Gerry Mulligan Quartet
TTITLE2=Rocker - Gerry Mulligan Tentette
TTITLE3=All The things You Are - Lee Konitz with Gerry Mulligan Quartet 
TTITLE4=What's New - Chet Baker and Stan Getz
TTITLE5=Bea's Flat - Chet Baker Quartet
TTITLE6=Blue Baiao - Laurindo almeida and Bud Shank
TTITLE7=It Don't Mean A Thing - Gerry Mulligan Sextet
TTITLE8=Ironis - Jimmy Guffre
TTITLE9=Groovus Mentus - Jack Sheldon with Zoot Sims
TTITLE10=Buddy Boo - Chico Hamilton Quintet
TTITLE11=2 Degees East 3 Degrees West - Bill Perkins and John Lewis
TTITLE12=Sure Ride - Art Pepper
TTITLE13=Steve Allen Theme - Bud Shank and Bob Cooper
EXTD=
EXTT0=
EXTT1=
EXTT2=
EXTT3=
EXTT4=
EXTT5=
EXTT6=
EXTT7=
EXTT8=
EXTT9=
EXTT10=
EXTT11=
EXTT12=
EXTT13=
PLAYORDER=
